<svg viewBox="0 0 14 13" fill="none" xmlns="http://www.w3.org/2000/svg">
<path d="M7.50098 12.273C6.06598 12.273 5.89681 12.2654 5.33681 12.2409C4.90011 12.2265 4.46906 12.1377 4.06223 11.9784C3.35832 11.7044 2.80173 11.1476 2.52806 10.4436C2.37482 10.0353 2.29217 9.6039 2.28364 9.16787C2.25098 8.60904 2.25098 8.42587 2.25098 7.00195C2.25098 5.56287 2.25856 5.39487 2.28364 4.83779C2.29236 4.40234 2.37501 3.97154 2.52806 3.56379C2.80143 2.85885 3.35893 2.30155 4.06398 2.02845C4.47152 1.87457 4.90243 1.7917 5.33798 1.78345C5.89506 1.75195 6.07823 1.75195 7.50098 1.75195C8.94764 1.75195 9.11389 1.75954 9.66514 1.78345C10.1018 1.79178 10.5339 1.87463 10.9426 2.02845C11.6475 2.30186 12.2049 2.85905 12.4786 3.56379C12.6344 3.97748 12.7175 4.41502 12.7241 4.85704C12.7568 5.41587 12.7568 5.59845 12.7568 7.02179C12.7568 8.44512 12.7486 8.63179 12.7241 9.1842C12.7155 9.62065 12.6326 10.0524 12.4791 10.4611C12.2048 11.1656 11.6473 11.7226 10.9426 11.9965C10.5345 12.1494 10.1033 12.232 9.66748 12.2409C9.11039 12.273 8.92781 12.273 7.50098 12.273ZM7.48114 2.67537C6.05431 2.67537 5.90614 2.68237 5.34906 2.70745C5.01655 2.71186 4.68726 2.77322 4.37548 2.88887C3.91508 3.06504 3.55078 3.42786 3.37273 3.88754C3.25618 4.20271 3.19481 4.53561 3.19131 4.87162C3.16039 5.43687 3.16039 5.58504 3.16039 7.00195C3.16039 8.40195 3.16564 8.5717 3.19131 9.13345C3.19653 9.46607 3.25787 9.79542 3.37273 10.1076C3.55104 10.567 3.91528 10.9295 4.37548 11.1057C4.68704 11.2221 5.01647 11.2835 5.34906 11.2871C5.91373 11.3198 6.06248 11.3198 7.48114 11.3198C8.91206 11.3198 9.06023 11.3128 9.61264 11.2871C9.94538 11.2831 10.2749 11.2217 10.5868 11.1057C11.0444 10.928 11.4064 10.5663 11.5843 10.1088C11.7006 9.79335 11.762 9.4603 11.7657 9.12412H11.7721C11.7972 8.56645 11.7972 8.4177 11.7972 6.99262C11.7972 5.56754 11.7908 5.41762 11.7657 4.86054C11.7605 4.5283 11.6992 4.19933 11.5843 3.88754C11.4068 3.42937 11.0448 3.06696 10.5868 2.88887C10.275 2.77264 9.9454 2.71126 9.61264 2.70745C9.04856 2.67537 8.90098 2.67537 7.48114 2.67537ZM7.50098 9.69637C6.41014 9.69708 5.4263 9.04055 5.00831 8.03297C4.59032 7.02539 4.82051 5.86523 5.59151 5.09356C6.36252 4.32188 7.52248 4.09069 8.53042 4.50781C9.53836 4.92493 10.1957 5.9082 10.196 6.99904C10.1944 8.48716 8.98909 9.69348 7.50098 9.69637ZM7.50098 5.24787C6.53448 5.24787 5.75098 6.03137 5.75098 6.99787C5.75098 7.96437 6.53448 8.74787 7.50098 8.74787C8.46747 8.74787 9.25098 7.96437 9.25098 6.99787C9.24873 6.0323 8.46654 5.25011 7.50098 5.24787ZM10.301 4.83196C9.95414 4.83067 9.67384 4.5488 9.67448 4.20196C9.67512 3.85512 9.95647 3.57429 10.3033 3.57429C10.6501 3.57429 10.9315 3.85511 10.9321 4.20195C10.9323 4.36929 10.8658 4.5298 10.7474 4.64802C10.6289 4.76623 10.4683 4.83242 10.301 4.83196Z" fill="white"/>
</svg>
