<svg  viewBox="0 0 12 11" fill="none" xmlns="http://www.w3.org/2000/svg">
<path d="M6 0C2.9625 0 0.5 2.4625 0.5 5.5C0.5 6.51625 0.776812 7.46743 1.25781 8.28418L0.553711 10.9209L3.31934 10.3022C4.11259 10.746 5.0265 11 6 11C9.0375 11 11.5 8.5375 11.5 5.5C11.5 2.4625 9.0375 0 6 0ZM6 1C8.48525 1 10.5 3.01475 10.5 5.5C10.5 7.98525 8.48525 10 6 10C5.06725 10 4.20092 9.71622 3.48242 9.23047L1.94775 9.57373L2.33838 8.10986C1.81263 7.37336 1.5 6.474 1.5 5.5C1.5 3.01475 3.51475 1 6 1ZM4.11816 2.93408C4.02641 2.93408 3.87892 2.96799 3.75342 3.10449C3.63017 3.24124 3.27832 3.56971 3.27832 4.24121C3.27832 4.91021 3.76427 5.55919 3.83252 5.64844C3.90077 5.74019 4.77513 7.15982 6.16113 7.70557C7.31013 8.15807 7.54489 8.06842 7.79639 8.04492C8.04589 8.02342 8.60208 7.71668 8.71533 7.39893C8.82833 7.08093 8.82822 6.80823 8.79297 6.75098C8.75872 6.69548 8.66922 6.66102 8.53271 6.59277C8.39621 6.52427 7.72657 6.19441 7.60107 6.14941C7.47732 6.10441 7.38564 6.08079 7.29639 6.21729C7.20464 6.35379 6.94453 6.66099 6.86328 6.75049C6.78453 6.84224 6.70584 6.85292 6.56934 6.78467C6.43284 6.71642 5.99388 6.57315 5.47363 6.1084C5.06888 5.74815 4.79555 5.30202 4.7168 5.16602C4.6378 5.02977 4.70812 4.95546 4.77637 4.88721C4.83837 4.82771 4.9132 4.72914 4.98145 4.65039C5.04745 4.56939 5.07072 4.51411 5.11572 4.42236C5.16297 4.33311 5.13898 4.25184 5.10498 4.18359C5.07123 4.11509 4.80656 3.44135 4.68506 3.17285C4.58306 2.94685 4.47642 2.94024 4.37842 2.93799C4.29917 2.93399 4.20741 2.93408 4.11816 2.93408Z" fill="white"/>
</svg>
