<svg width="207" height="41" viewBox="0 0 207 41" fill="none" xmlns="http://www.w3.org/2000/svg">
<mask id="mask0_398_1131" style="mask-type:luminance" maskUnits="userSpaceOnUse" x="0" y="0" width="58" height="41">
<path d="M0 0.5H57.2631V40.5H0V0.5Z" fill="white"/>
</mask>
<g mask="url(#mask0_398_1131)">
<path d="M0 0.5H57.266V40.5H0V0.5Z" fill="white"/>
</g>
<path d="M19.8856 31.0313C28.36 31.0313 32.4403 26.8764 32.4403 19.3641V19.3092C32.4403 11.9963 28.6708 7.95703 19.8856 7.95703H9.85449V31.0313H19.8856ZM15.1549 12.9065H19.9144C24.7026 12.9065 27.0565 15.0677 27.0565 19.3092V19.3641C27.0565 23.8339 24.6767 26.0819 19.9144 26.0819H15.1549V12.9065Z" fill="#38352B"/>
<path d="M46.237 31.0313V7.95703H40.9365V31.0313H46.237Z" fill="#38352B"/>
<path d="M84.156 31.0313V26.0819H71.6588V7.95703H66.3584V31.0313H84.156Z" fill="white"/>
<path d="M110.052 31.0313V26.0819H97.4137V21.586H109.059V16.9747H97.4137V12.9065H109.994V7.95703H92.1133V31.0313H110.052Z" fill="white"/>
<path d="M136.031 17.9429V25.6256C134.474 26.1659 132.774 26.452 131.3 26.452C126.711 26.452 123.678 24.2301 123.678 19.5378V19.48C123.678 14.6982 126.823 12.508 131.64 12.508C134.305 12.508 136.94 13.1928 138.782 14.3023L140.906 9.69093C138.017 8.26937 134.702 7.55859 131.413 7.55859C123.252 7.55859 118.236 12.196 118.236 19.48V19.5378C118.236 26.7351 123.14 31.4303 131.102 31.4303C134.189 31.4303 138.638 30.5751 141.19 29.2113V17.9429H136.031Z" fill="white"/>
<path d="M166.833 25.4549L157.424 7.95703H150.141V31.0313H155.441V13.1925L164.963 31.0313H172.102V7.95703H166.833V25.4549Z" fill="white"/>
<path d="M193.747 31.4014C201.767 31.4014 206.897 26.3653 206.897 19.48V19.4222C206.897 12.5369 201.767 7.55859 193.747 7.55859C185.701 7.55859 180.6 12.5369 180.6 19.4222V19.48C180.6 26.3653 185.727 31.4014 193.747 31.4014ZM193.747 26.452C189.129 26.452 185.983 23.6898 185.983 19.48V19.4511C185.983 15.1836 189.045 12.508 193.747 12.508C198.34 12.508 201.485 15.2413 201.485 19.4511V19.48C201.485 23.6898 198.34 26.452 193.747 26.452Z" fill="white"/>
</svg>
