<svg  viewBox="0 0 31 30" fill="none" xmlns="http://www.w3.org/2000/svg">
<path d="M22.2875 5.59969C20.425 3.76219 18 2.79969 15.3375 2.82469C10.275 2.91219 5.99998 7.08719 5.81248 12.1497C5.68748 15.5247 7.28748 18.6622 10.075 20.5497C10.5375 20.8622 10.8 21.3497 10.8 21.8622V23.7622C10.8 25.6622 12.3375 27.1997 14.2375 27.1997H16.7375C18.6375 27.1997 20.175 25.6622 20.175 23.7622V21.8622C20.175 21.3497 20.4375 20.8622 20.8875 20.5622C23.575 18.7622 25.175 15.7497 25.175 12.5247C25.175 9.91219 24.15 7.44969 22.275 5.62469L22.2875 5.59969ZM16.75 25.3122H14.25C13.3875 25.3122 12.6875 24.6122 12.6875 23.7497V23.4372H18.3125V23.7497C18.3125 24.6122 17.6125 25.3122 16.75 25.3122ZM19.85 18.9872C18.9625 19.5872 18.425 20.5372 18.3375 21.5622H12.6375C12.55 20.5372 12.0125 19.5747 11.125 18.9747C8.87498 17.4497 7.58748 14.9122 7.68748 12.1997C7.83748 8.12469 11.2875 4.74969 15.3625 4.68719C17.475 4.66219 19.4625 5.44969 20.975 6.92469C22.475 8.39969 23.3125 10.3872 23.3125 12.4997C23.3125 15.0997 22.025 17.5247 19.85 18.9872Z" fill="black"/>
</svg>
