<svg  viewBox="0 0 30 30" fill="none" xmlns="http://www.w3.org/2000/svg">
<path d="M25.533 6.34547L15.4367 2.13472C15.0247 1.95509 14.5492 1.95509 14.1318 2.13472L4.0408 6.34018C3.41209 6.60434 3 7.21192 3 7.89345V17.2289C3 23.722 8.28852 29 14.7816 29C21.2747 29 26.5633 23.7168 26.5633 17.2289V7.89345C26.5633 7.2172 26.1564 6.60963 25.533 6.34547ZM24.45 17.2342C24.45 22.5597 20.1071 26.892 14.7816 26.892C9.45612 26.892 5.1133 22.5597 5.1133 17.2342V8.18403L14.7816 4.15292L24.45 8.18403V17.2342Z" fill="black"/>
<path d="M11.573 14.0836C11.268 13.7034 10.711 13.6415 10.3308 13.9465C9.95069 14.2515 9.88881 14.8085 10.1938 15.1886L12.1741 17.6596C12.1786 17.6641 12.183 17.6685 12.183 17.6729C12.1874 17.6817 12.1962 17.6862 12.2007 17.695C12.2051 17.6994 12.2095 17.7083 12.2183 17.7127L12.2404 17.7348C12.2449 17.7392 12.2537 17.7436 12.2581 17.7525L12.2802 17.7746L12.2979 17.7922C12.3068 17.7967 12.3112 17.8055 12.32 17.8099C12.3333 17.8188 12.3465 17.832 12.3598 17.8409C12.3642 17.8409 12.3642 17.8453 12.3686 17.8453C12.3819 17.8541 12.3952 17.863 12.404 17.8674C12.4084 17.8718 12.4128 17.8718 12.4173 17.8762C12.4305 17.8806 12.4394 17.8895 12.4526 17.8939C12.457 17.8983 12.4615 17.8983 12.4659 17.9028C12.4747 17.9072 12.488 17.9116 12.4968 17.9204C12.5012 17.9249 12.5057 17.9249 12.5101 17.9293C12.5189 17.9337 12.5322 17.9381 12.541 17.9425C12.5455 17.9425 12.5499 17.947 12.5587 17.947C12.5676 17.9514 12.5808 17.9558 12.5897 17.9558C12.5941 17.9558 12.6029 17.9602 12.6073 17.9602C12.6162 17.9646 12.6294 17.9646 12.6383 17.9691C12.6427 17.9691 12.6515 17.9735 12.656 17.9735C12.6648 17.9779 12.6781 17.9779 12.6869 17.9823C12.6913 17.9823 12.7002 17.9867 12.7046 17.9867C12.7134 17.9867 12.7267 17.9912 12.7355 17.9912C12.7444 17.9912 12.7488 17.9912 12.7576 17.9956C12.7665 17.9956 12.7753 17.9956 12.7886 18H12.8593C12.8814 18 12.9035 18 12.93 17.9956H12.9477C12.9654 17.9956 12.9831 17.9912 13.0007 17.9912C13.0096 17.9912 13.014 17.9867 13.0229 17.9867C13.0361 17.9823 13.0538 17.9823 13.0671 17.9779C13.0759 17.9779 13.0847 17.9735 13.0936 17.9691L13.1334 17.9558C13.1422 17.9514 13.151 17.9514 13.1599 17.947L13.1997 17.9337L13.2262 17.9204C13.2394 17.916 13.2527 17.9072 13.2616 17.9028L13.2881 17.8895C13.3102 17.8762 13.3279 17.8674 13.35 17.8541L19.7197 13.6194C20.1264 13.3498 20.2369 12.8016 19.9673 12.395C19.6976 11.9883 19.1495 11.8778 18.7428 12.1474L13.045 15.9357L11.573 14.0836Z" fill="black"/>
</svg>
