<svg viewBox="0 0 31 30" fill="none" xmlns="http://www.w3.org/2000/svg">
<path d="M15.5 27.5C8.59644 27.5 3 21.9036 3 15C3 8.09644 8.59644 2.5 15.5 2.5C22.4036 2.5 28 8.09644 28 15C27.9924 21.9004 22.4004 27.4924 15.5 27.5ZM15.5 5C9.97715 5 5.5 9.47715 5.5 15C5.5 20.5228 9.97715 25 15.5 25C21.0228 25 25.5 20.5228 25.5 15C25.4938 9.47972 21.0203 5.0062 15.5 5ZM15.5 22.5C13.525 22.5334 11.6582 21.6 10.5 20C9.9376 19.2479 9.51426 18.4012 9.25 17.5H21.75C21.75 17.5 21.75 17.5 21.75 17.51C21.4817 18.4065 21.0586 19.2492 20.5 20C19.3416 21.5999 17.4749 22.5332 15.5 22.5ZM11.125 15C10.0895 15 9.25 14.1605 9.25 13.125C9.25 12.0895 10.0895 11.25 11.125 11.25C12.1605 11.25 13 12.0895 13 13.125C13 14.1605 12.1605 15 11.125 15ZM19.8662 14.9825C18.8355 14.9825 18 14.147 18 13.1163C18 12.0855 18.8355 11.25 19.8662 11.25C20.897 11.25 21.7325 12.0855 21.7325 13.1163C21.7311 14.1464 20.8964 14.9811 19.8662 14.9825Z" fill="#2E3A59"/>
</svg>
